<svg xmlns="http://www.w3.org/2000/svg" width="32.72" height="71.98" viewBox="0 0 32.72 71.98">
  <path id="Icon" d="M18.931,54.707c1.812-2.651,3.516-5.279,5.373-7.8a9.558,9.558,0,0,1,2.581-2.262,3.826,3.826,0,0,1,5.79,3.983A12.216,12.216,0,0,1,31.5,51.71c-1.3,2.52-2.787,4.947-4.021,7.5a17.209,17.209,0,0,0-1.548,4.626,5.78,5.78,0,0,0,2.273,5.888c.916.688.7,1.171-.187,1.648a6.362,6.362,0,0,1-7.254-1.3c-2.836-3.086-3.335-6.83-2.777-10.808.059-.434.161-.863.24-1.286-4.408-1.219-6.573-3.632-6.72-8.19a41.629,41.629,0,0,1,.931-7.19,10.132,10.132,0,0,1,.411-1.394,1.782,1.782,0,0,0-.421-.186C3.491,39.762-1.471,32.888.46,24.06a39.335,39.335,0,0,1,2.982-8.633C5.632,10.884,8.154,6.491,10.653,2.1A5.132,5.132,0,0,1,12.94.227a2.731,2.731,0,0,1,3.16.819,3.09,3.09,0,0,1,.651,3.462c-.617,1.559-1.421,3.051-2.16,4.562-1.945,3.978-4.017,7.907-5.8,11.953A25.9,25.9,0,0,0,6.93,27.5,7.528,7.528,0,0,0,14.4,35.847a1.861,1.861,0,0,0,1.342-.78,67.685,67.685,0,0,1,8.611-11.143c1.464-1.648,3.355-1.98,4.879-.936a3.537,3.537,0,0,1,.812,4.972c-1.293,2.169-2.728,4.256-4.1,6.376-3.047,4.7-5.858,9.52-7.313,14.99A7.525,7.525,0,0,0,18.931,54.707Z" transform="translate(-0.046 -0.005)"/>
</svg>
