<svg xmlns="http://www.w3.org/2000/svg" width="23.682" height="47.401" viewBox="0 0 23.682 47.401">
  <path id="ww" d="M4.679,31.684a24.852,24.852,0,0,1,.769-3.248C8.431,20.569,10.61,12.4,14.184,4.757a15.282,15.282,0,0,1,1.216-2.3A4.647,4.647,0,0,1,21.255.777a4.815,4.815,0,0,1,2.486,5.645,7.375,7.375,0,0,1-.391,1.194c-2.307,5.236-4.5,10.529-6.988,15.68a88.09,88.09,0,0,1-5.055,8.526A12.261,12.261,0,0,1,9.052,34.4c-1.811,1.6-3.718.871-4.169-1.537a11.405,11.405,0,0,1-.1-1.149c-.034-.011-.068-.023-.1-.031Zm-.231,7.963a3.9,3.9,0,0,1,3.91,3.88,4.071,4.071,0,0,1-8.136.312A4.138,4.138,0,0,1,4.448,39.647Z" transform="translate(-0.222 -0.333)"/>
</svg>
