<svg xmlns="http://www.w3.org/2000/svg" width="18.622" height="30.395" viewBox="0 0 18.622 30.395">
  <path id="dd" d="M.892,17.805a27.168,27.168,0,0,1,1-2.819A53.44,53.44,0,0,1,9.82,2.919,7.861,7.861,0,0,1,12.406.98a2.8,2.8,0,0,1,4.162,2.49,6.314,6.314,0,0,1-.756,3.478c-2.843,4.5-5.823,8.917-8.855,13.291A3.119,3.119,0,0,1,3.1,21.276,3.7,3.7,0,0,1,.892,17.805Zm15.174,5.869c2.1.111,3.319,1.157,3.438,2.633.122,1.516-.855,2.622-2.616,2.981-2.678.542-5.339,1.142-8.027,1.624a7.181,7.181,0,0,1-2.858,0,2.055,2.055,0,0,1-1.1-3.517,3.243,3.243,0,0,1,.935-.825A27.855,27.855,0,0,1,16.066,23.674Z" transform="translate(-0.892 -0.663)"/>
</svg>
